<svg xmlns="http://www.w3.org/2000/svg" viewBox="0 0 24 24" width="24" height="24" fill="currentColor" aria-hidden="true">
  <path d="M23.643 4.937c-.835.37-1.732.62-2.675.733a4.66 4.66 0 0 0 2.048-2.572 9.297 9.297 0 0 1-2.95 1.13 4.644 4.644 0 0 0-7.917 4.231A13.185 13.185 0 0 1 1.67 3.149a4.64 4.64 0 0 0 1.437 6.19 4.6 4.6 0 0 1-2.104-.582v.06a4.644 4.644 0 0 0 3.722 4.55 4.68 4.68 0 0 1-2.096.08 4.648 4.648 0 0 0 4.336 3.222A9.31 9.31 0 0 1 .98 19.54a13.14 13.14 0 0 0 7.115 2.085c8.548 0 13.228-7.084 13.228-13.228 0-.201-.004-.402-.013-.602a9.45 9.45 0 0 0 2.309-2.406l.001-.001z"/>
</svg>